# xmcd
#
# Track frame offsets:
#	150
#	18736
#	65354
#	91747
#	131337
#	149141
#	184443
#
# Disc length: 3622 seconds
# Revision: 1
# Processed by: cddbd v1.5.2PL0 Copyright (c) Steve Scherf et al.
# Submitted via: dBpowerAMP V12.0
#
DISCID=650e2407
DTITLE=Albert King - Live Wire/Blues Power
DYEAR=1968
DGENRE=Blues
TTITLE0=Watermelon Man
TTITLE1=Blues Power
TTITLE2=Night Stomp
TTITLE3=Blues at Sunrise
TTITLE4=Please Love Me
TTITLE5=Look Out
TTITLE6=DATA
EXTD=
EXTT0=
EXTT1=
EXTT2=
EXTT3=
EXTT4=
EXTT5=
EXTT6=
PLAYORDER=
